<svg xmlns="http://www.w3.org/2000/svg" viewBox="0 0 836 390" preserveAspectRatio="none">
  <defs>
    <linearGradient id="shapeGradient" x1="0" y1="390" x2="836" y2="0" gradientUnits="userSpaceOnUse">
      <stop offset="0" stop-color="#d9e6ff"/>
      <stop offset="0.46" stop-color="#ced5ff"/>
      <stop offset="1" stop-color="#bdc7ff"/>
    </linearGradient>
    <radialGradient id="warmGlow" cx="0.64" cy="0.16" r="0.58">
      <stop offset="0" stop-color="#ffffff" stop-opacity="0.74"/>
      <stop offset="0.42" stop-color="#ffffff" stop-opacity="0.22"/>
      <stop offset="1" stop-color="#ffffff" stop-opacity="0"/>
    </radialGradient>
    <radialGradient id="coolGlow" cx="0.18" cy="0.84" r="0.58">
      <stop offset="0" stop-color="#9edfff" stop-opacity="0.34"/>
      <stop offset="1" stop-color="#9edfff" stop-opacity="0"/>
    </radialGradient>
    <filter id="innerSoft" x="-2%" y="-2%" width="104%" height="104%">
      <feDropShadow dx="0" dy="1" stdDeviation="0" flood-color="#ffffff" flood-opacity="0.58"/>
    </filter>
  </defs>
  <path filter="url(#innerSoft)" fill="url(#shapeGradient)" d="M432 0H794C817.2 0 836 18.8 836 42V348C836 371.2 817.2 390 794 390H42C18.8 390 0 371.2 0 348V228H166C192 228 208 217 222 197C236 177 252 165 278 165H303C326 165 340 151 354 124C379 78 404 0 432 0Z"/>
  <path fill="url(#warmGlow)" d="M432 0H794C817.2 0 836 18.8 836 42V348C836 371.2 817.2 390 794 390H42C18.8 390 0 371.2 0 348V228H166C192 228 208 217 222 197C236 177 252 165 278 165H303C326 165 340 151 354 124C379 78 404 0 432 0Z"/>
  <path fill="url(#coolGlow)" d="M432 0H794C817.2 0 836 18.8 836 42V348C836 371.2 817.2 390 794 390H42C18.8 390 0 371.2 0 348V228H166C192 228 208 217 222 197C236 177 252 165 278 165H303C326 165 340 151 354 124C379 78 404 0 432 0Z"/>
</svg>
